<?xml version="1.0" encoding="utf-8"?>
<!-- Generator: Adobe Illustrator 24.1.1, SVG Export Plug-In . SVG Version: 6.00 Build 0)  -->
<svg version="1.1" id="Camada_1" xmlns="http://www.w3.org/2000/svg" xmlns:xlink="http://www.w3.org/1999/xlink" x="0px" y="0px"
	 viewBox="0 0 300 300" style="enable-background:new 0 0 300 300;" xml:space="preserve">
<g>
	<path style="fill:#424242;" d="M5.21,5.21v289.58h289.58V5.21H5.21z M276.88,276.88H23.12V23.12h253.75v253.76H276.88z"/>
</g>
<path style="fill:#424242;" d="M168.08,73.49c-6.36,0-12.04,2.9-15.81,7.44c-3.77-4.54-9.43-7.44-15.8-7.44
	c-11.34,0-20.54,9.2-20.54,20.54c0,11.34,9.2,20.54,20.54,20.54c6.36,0,12.03-2.9,15.8-7.44c3.77,4.54,9.45,7.44,15.81,7.44
	c11.34,0,20.54-9.2,20.54-20.54C188.62,82.69,179.42,73.49,168.08,73.49z M168.08,109.83c-8.71,0-15.8-7.09-15.8-15.8
	c0-8.71,7.09-15.8,15.8-15.8s15.8,7.09,15.8,15.8C183.88,102.74,176.79,109.83,168.08,109.83z"/>
<path style="fill:#424242;" d="M172.53,208h-40.5c-2.24,0-4.05,1.81-4.05,4.05s1.82,4.05,4.05,4.05h40.5c2.24,0,4.05-1.81,4.05-4.05
	C176.57,209.81,174.76,208,172.53,208z"/>
<path style="fill:#424242;" d="M111.78,199.9h80.99c2.24,0,4.05-1.82,4.05-4.05c0-2.24-1.82-4.05-4.05-4.05h-80.99
	c-2.24,0-4.05,1.82-4.05,4.05C107.73,198.08,109.55,199.9,111.78,199.9z"/>
<path style="fill:#424242;" d="M225.17,49.22H79.38c-2.24,0-4.05,1.81-4.05,4.05v85.04c0,2.24,1.81,4.05,4.05,4.05h145.78
	c2.24,0,4.05-1.81,4.05-4.05V53.27C229.22,51.04,227.4,49.22,225.17,49.22z M221.12,134.26H83.43V57.32h137.69V134.26z"/>
<path style="fill:#424242;" d="M225.17,155.35H79.38c-2.24,0-4.05,1.81-4.05,4.05v85.04c0,2.24,1.81,4.05,4.05,4.05h145.78
	c2.24,0,4.05-1.82,4.05-4.05V159.4C229.22,157.17,227.4,155.35,225.17,155.35z M221.12,240.39H83.43v-76.94h137.69V240.39z"/>
</svg>
