<?xml version="1.0" encoding="utf-8"?>
<!-- Generator: Adobe Illustrator 24.1.1, SVG Export Plug-In . SVG Version: 6.00 Build 0)  -->
<svg version="1.1" id="Camada_1" xmlns="http://www.w3.org/2000/svg" xmlns:xlink="http://www.w3.org/1999/xlink" x="0px" y="0px"
	 viewBox="0 0 300 300" style="enable-background:new 0 0 300 300;" xml:space="preserve">
<path style="fill:#424242;" d="M257.69,6.34c-14.3-2.95-27.77,0.64-37.99,8.31l65.4,65.4c7.7-10.25,11.29-23.78,8.29-38.11
	C289.68,24.27,275.37,10,257.69,6.34z"/>
<polygon style="fill:#424242;" points="239.01,278.3 21.94,278.3 21.94,61.24 157.27,61.24 173.65,44.86 5.56,44.86 5.56,294.69 
	255.39,294.69 255.39,126.08 239.01,142.51 "/>
<path style="fill:#424242;" d="M43.26,237.78l-4.54,16.39c-0.6,2.82,0.32,5.74,2.42,7.71c1.54,1.43,3.54,2.2,5.59,2.2h158.04
	c4.52,0,8.19-3.67,8.19-8.19c0-4.53-3.67-8.19-8.19-8.19H104.65l0,0l0,0l0,0l3.02-1.89l1.39-0.31l24.24-12.08L275.64,91.08
	L208.86,24.3L63.83,169.77L43.26,237.78z M205.22,75.59l18.94,18.94l-93.68,93.69l-18.94-18.94L205.22,75.59z"/>
</svg>
