<?xml version="1.0" encoding="utf-8"?>
<!-- Generator: Adobe Illustrator 24.1.1, SVG Export Plug-In . SVG Version: 6.00 Build 0)  -->
<svg version="1.1" id="Camada_1" xmlns="http://www.w3.org/2000/svg" xmlns:xlink="http://www.w3.org/1999/xlink" x="0px" y="0px"
	 viewBox="0 0 300 300" style="enable-background:new 0 0 300 300;" xml:space="preserve">
<style type="text/css">
	.st0{fill:#424242;}
</style>
<g>
	<polygon class="st0" points="246.8,277.1 40.9,277.1 40.9,223.6 22.9,223.6 22.9,295 264.8,295 264.8,223.6 246.8,223.6 	"/>
</g>
<g>
	<polygon class="st0" points="40.9,29.1 199,29.1 199,11.2 22.9,11.2 22.9,61.7 40.9,61.7 	"/>
</g>
<g>
	<path class="st0" d="M170,100.5c0-16.8-13.7-30.5-30.5-30.5c-16.8,0-30.5,13.7-30.5,30.5c0,16.8,13.7,30.5,30.5,30.5
		C156.3,131.1,170,117.4,170,100.5z M123.4,100.5c0-8.9,7.2-16.1,16.1-16.1c8.9,0,16.1,7.2,16.1,16.1c0,8.9-7.2,16.1-16.1,16.1
		C130.6,116.6,123.4,109.4,123.4,100.5z"/>
	<path class="st0" d="M287.7,11.8C283.3,7.4,277.5,5,271.3,5l-59.6,0c-12.8,0-23.2,10.4-23.2,23.2v22.2l-46.6,0l-112.6,0
		C16,50.4,5,61.3,5,74.8V210c0,13.5,11,24.5,24.5,24.5h63.8l-6.5,26.4l0,0.1c0,0.2-0.1,0.3-0.1,0.6l0,0.2c0,0.2,0,0.3,0,0.6
		c0,0.1,0,0.1,0,0.2l0,0.1c0,0.2,0,0.4,0,0.6l0,0.1c0,0.3,0.1,0.5,0.1,0.8l0,0.1c0.1,0.2,0.1,0.4,0.2,0.7L87,265
		c0.1,0.2,0.1,0.4,0.2,0.6l0.1,0.2c0.1,0.2,0.2,0.3,0.3,0.5l0.1,0.2c0.1,0.2,0.2,0.3,0.3,0.4c0,0.1,0.1,0.1,0.2,0.2
		c0.1,0.2,0.3,0.3,0.4,0.4l0.1,0.1c0.2,0.2,0.4,0.4,0.6,0.5c0.1,0,0.1,0.1,0.2,0.1c0.2,0.1,0.3,0.2,0.5,0.3l0.2,0.1
		c0.2,0.1,0.3,0.2,0.5,0.3l0.2,0.1c0.2,0.1,0.3,0.2,0.5,0.2l0.2,0.1c0.2,0.1,0.3,0.1,0.6,0.2l0.2,0c0.2,0,0.4,0.1,0.6,0.1l0.2,0
		c0.3,0,0.5,0,0.8,0h94.5c0.3,0,0.5,0,0.8,0l0.2,0c0.2,0,0.4-0.1,0.6-0.1l0.2-0.1c0.2,0,0.4-0.1,0.6-0.2l0.2-0.1
		c0.2-0.1,0.3-0.1,0.5-0.2l0.2-0.1c0.2-0.1,0.3-0.2,0.5-0.3l0.2-0.1c0.2-0.1,0.3-0.2,0.5-0.3l0.1-0.1c0.2-0.2,0.4-0.3,0.5-0.5
		c0.1-0.1,0.1-0.1,0.1-0.1c0.1-0.1,0.3-0.3,0.4-0.4l0.1-0.1c0-0.1,0.1-0.1,0.1-0.1c0.1-0.1,0.2-0.3,0.3-0.4l0.1-0.2
		c0.1-0.1,0.2-0.3,0.2-0.5l0.1-0.2c0.1-0.2,0.2-0.4,0.2-0.6l0.1-0.2c0.1-0.2,0.1-0.4,0.2-0.6l0-0.1c0.1-0.3,0.1-0.5,0.1-0.9
		c0-0.2,0-0.4,0-0.6l0-0.1c0-0.1,0-0.1,0-0.2c0-0.2,0-0.4,0-0.5l0-0.2c0-0.2-0.1-0.3-0.1-0.5l-6.5-26.6l64.8,0
		c12.2,0,22.1-9.9,22.1-22.1v-43.8c10.8-2.1,18.8-11.6,18.8-22.8V28.2C294.5,22,292.1,16.2,287.7,11.8z M179.1,255.3H103l5.1-20.9
		l65.8,0L179.1,255.3z M203,28.2c0-4.8,3.9-8.7,8.7-8.7h59.7c2.3,0,4.5,0.9,6.1,2.6c1.6,1.6,2.6,3.8,2.6,6.1v4.2H203V28.2z
		 M151.2,187.2l-19.9,0l-22.4-24.6l10-11L151.2,187.2z M113.5,136l-14.4,15.8l-33.7-37.1c-1.3-1.5-3.2-2.3-5.3-2.4c0,0,0,0,0,0
		c-2,0-3.9,0.8-5.3,2.2l-35.3,36.3V72.5c0-4.2,3.4-7.6,7.6-7.6h161.5v80.9c0,12.8,10.4,23.2,23.2,23.2l49.5,0v18.3h-90.5L124.2,136
		c-1.4-1.5-3.3-2.4-5.4-2.4C116.8,133.6,114.8,134.4,113.5,136z M19.5,187.2v-15.6l40.3-41.4l51.9,57H19.5z M280,140.9v4.9
		c0,4.8-3.9,8.7-8.7,8.7l-59.7,0c-4.8,0-8.7-3.9-8.7-8.7v-4.9H280z M264.2,76.1c0,4.3-3.5,7.8-7.8,7.8c-4.3,0-7.8-3.5-7.8-7.8
		c0-4.3,3.5-7.8,7.8-7.8C260.7,68.3,264.2,71.8,264.2,76.1z M277.1,76.1c0-11.4-9.3-20.7-20.7-20.7c-11.4,0-20.7,9.3-20.7,20.7
		c0,9,5.8,16.6,13.8,19.5c-0.1,0-0.3,0-0.4,0c-2,0-4,0.9-5.4,2.4l-6.1,6.7l-17.2-18.9c-1.4-1.5-3.3-2.4-5.4-2.4c-2,0-4,0.9-5.4,2.4
		l-6.8,7.5V46.9H280V126l-25.6-28.1c-0.6-0.6-1.2-1.1-2-1.5c1.3,0.2,2.6,0.4,3.9,0.4C267.9,96.8,277.1,87.5,277.1,76.1z
		 M257.6,126.4l-10.1-11.1l2.4-3.4l12.1,14.5H257.6z M203,114.7l12.2-13.4l22.8,25.1h-35V114.7z M261.2,201.7v10.7
		c0,4.2-3.4,7.6-7.6,7.6H27.1c-4.2,0-7.6-3.4-7.6-7.6v-10.7H261.2z M88.6,261.9L88.6,261.9L88.6,261.9L88.6,261.9z M92.6,267.7
		C92.6,267.7,92.6,267.7,92.6,267.7L92.6,267.7L92.6,267.7z M191.2,267L191.2,267L191.2,267L191.2,267z"/>
</g>
</svg>
