<?xml version="1.0" encoding="utf-8"?>
<!-- Generator: Adobe Illustrator 24.1.1, SVG Export Plug-In . SVG Version: 6.00 Build 0)  -->
<svg version="1.1" id="Camada_1" xmlns="http://www.w3.org/2000/svg" xmlns:xlink="http://www.w3.org/1999/xlink" x="0px" y="0px"
	 viewBox="0 0 683.1 613.4" style="enable-background:new 0 0 683.1 613.4;" xml:space="preserve">
<style type="text/css">
	.st0{fill:#F39232;}
</style>
<g id="Education" transform="translate(-864.000000, 0.000000)">
	<g id="certificate_line" transform="translate(864.000000, 0.000000)">
		<path id="形状" class="st0" d="M541.6,207.2c73.6,0,133.3,59.7,133.3,133.3c0,33.8-12.6,64.7-33.3,88.2v139.7
			c0,27.3-28.7,45-53.1,32.8l-46.9-23.4l-46.9,23.5c-24.4,12.2-53.1-5.5-53.1-32.8V428.8c-20.7-23.5-33.3-54.4-33.3-88.2
			C408.3,266.9,468,207.2,541.6,207.2z M608.3,7.2C645.1,7.2,675,37,675,73.9v66.7c0,18.4-14.9,33.3-33.3,33.3
			c-18.4,0-33.3-14.9-33.3-33.3V73.9H74.9v400h266.7c18.4,0,33.3,14.9,33.3,33.3s-14.9,33.3-33.3,33.3H74.9
			c-36.8,0-66.7-29.8-66.7-66.7V73.9C8.2,37.1,38,7.2,74.9,7.2H608.3z M574.9,469.7c-10.7,2.7-21.8,4.2-33.3,4.2s-22.7-1.5-33.3-4.2
			V520l18.4-9.2c9.4-4.7,20.4-4.7,29.8,0l18.4,9.2L574.9,469.7L574.9,469.7z M541.6,273.9c-36.8,0-66.7,29.8-66.7,66.7
			s29.8,66.7,66.7,66.7c36.8,0,66.7-29.8,66.7-66.7S578.4,273.9,541.6,273.9z M241.6,307.2c18.4,0,33.3,14.9,33.3,33.3
			c0,17.1-12.9,31.2-29.4,33.1l-3.9,0.3h-66.7c-18.4,0-33.3-14.9-33.3-33.3c0-17.1,12.9-31.2,29.4-33.1l3.9-0.2h66.7V307.2z
			 M374.9,173.9c18.4,0,33.3,14.9,33.3,33.3s-14.9,33.3-33.3,33.3h-200c-18.4,0-33.3-14.9-33.3-33.3s14.9-33.3,33.3-33.3H374.9z"/>
	</g>
</g>
</svg>
