<?xml version="1.0" encoding="utf-8"?>
<!-- Generator: Adobe Illustrator 24.1.1, SVG Export Plug-In . SVG Version: 6.00 Build 0)  -->
<svg version="1.1" id="Camada_1" xmlns="http://www.w3.org/2000/svg" xmlns:xlink="http://www.w3.org/1999/xlink" x="0px" y="0px"
	 viewBox="0 0 300 300" style="enable-background:new 0 0 300 300;" xml:space="preserve">
<path style="fill:#424242;" d="M105.74,181.56h40.73l11.01,36.5h34.58L147.93,75.71h-42.19L62.16,218.06h33.38L105.74,181.56z
	 M125.33,99.76h0.41c2.09,8.52,16.11,57.67,16.11,57.67h-31.51C110.34,157.43,123.21,108.28,125.33,99.76L125.33,99.76z"/>
<rect x="204.63" y="114.83" style="fill:#424242;" width="32.15" height="103.24"/>
<path style="fill:#424242;" d="M220.51,102.12c10.61,0,17.33-7.22,17.33-16.04c-0.25-9.31-6.72-16.28-17.08-16.28
	c-10.37,0-17.17,6.96-16.94,16.28C203.59,94.91,210.39,102.12,220.51,102.12L220.51,102.12z"/>
<path style="fill:#424242;" d="M5.14,5.14v289.71h289.71V5.14H5.14z M276.93,276.93H23.07V23.07h253.87v253.86H276.93z"/>
</svg>
