<?xml version="1.0" encoding="utf-8"?>
<!-- Generator: Adobe Illustrator 24.1.1, SVG Export Plug-In . SVG Version: 6.00 Build 0)  -->
<svg version="1.1" id="Camada_1" xmlns="http://www.w3.org/2000/svg" xmlns:xlink="http://www.w3.org/1999/xlink" x="0px" y="0px"
	 viewBox="0 0 300 300" style="enable-background:new 0 0 300 300;" xml:space="preserve">
<g>
	<g>
		<path style="fill:#424242;" d="M5.31,5.31v289.37h289.37V5.31H5.31z M276.79,276.79H23.21V23.21h253.57v253.58H276.79z"/>
	</g>
</g>
<path style="fill:#424242;" d="M81.91,180.96l-10.79,40.46c0,1.08-0.54,1.62-2.16,1.62H49c-1.08,0-1.62-0.54-1.08-2.16l38.31-133.8
	c0.84-3.53,1.21-7.16,1.08-10.79c0-1.08,0.54-1.08,1.08-1.08h28.06c1.08,0,1.08,0,1.62,1.08l43.16,145c0,1.08,0,1.62-1.08,1.62
	h-22.12c-0.85-0.02-1.64-0.41-2.16-1.08l-10.79-40.87H81.91z M119.68,159.37c-3.78-15.11-12.95-47.48-16.19-63.66l0,0
	c-2.7,15.65-10.12,42.62-15.65,63.66H119.68z M191.98,172.86c0,18.34,9.17,30.75,29.13,30.75c7.56,0.22,15.07-1.25,21.99-4.32
	c1.08-0.54,1.62,0,1.62,1.08v16.86c-0.02,1-0.4,1.96-1.08,2.7c-7.01,3.78-16.19,4.86-26.98,4.86c-35.61,0-49.1-26.44-49.1-55.57
	c0-31.83,16.86-57.73,45.32-57.73c29.13,0,39.39,24.82,39.39,44.78c0.1,4.7-0.26,9.4-1.08,14.03c-0.03,0.73-0.62,1.31-1.35,1.35
	c-7.52,0.9-15.09,1.26-22.66,1.08L191.98,172.86z M219.5,154.52h10.12v-2.16c0-7.69-3.64-21.18-17.67-21.18
	c-12.95,0-18.34,11.33-19.96,23.2L219.5,154.52z"/>
</svg>
