<?xml version="1.0" encoding="utf-8"?>
<!-- Generator: Adobe Illustrator 24.1.1, SVG Export Plug-In . SVG Version: 6.00 Build 0)  -->
<svg version="1.1" id="Camada_1" xmlns="http://www.w3.org/2000/svg" xmlns:xlink="http://www.w3.org/1999/xlink" x="0px" y="0px"
	 viewBox="0 0 800 800" style="enable-background:new 0 0 800 800;" xml:space="preserve">
<style type="text/css">
	.st0{fill:#F39232;}
</style>
<g>
	<path class="st0" d="M560,700H240c-41.3,0-64,0-85.4-10.9c-18.9-9.6-34-24.8-43.7-43.7C100,624,100,601.3,100,560V240
		c0-41.3,0-64,10.9-85.4c9.7-18.9,24.8-34.1,43.7-43.7C176,100,198.7,100,240,100h320c41.3,0,64,0,85.4,10.9
		c18.9,9.7,34.1,24.8,43.7,43.7C700,176,700,198.7,700,240v320c0,41.3,0,64-10.9,85.4c-9.6,18.9-24.8,34-43.7,43.7
		C624,700,601.3,700,560,700z M240,166.7c-28.9,0-48,0-55.1,3.6c-6.3,3.2-11.4,8.3-14.6,14.6c-3.6,7.1-3.6,26.2-3.6,55.1v320
		c0,28.9,0,48,3.6,55.1c3.2,6.3,8.3,11.4,14.6,14.6c7.1,3.6,26.2,3.6,55.1,3.6h320c28.9,0,48,0,55.1-3.6c6.3-3.2,11.4-8.3,14.6-14.6
		c3.6-7.1,3.6-26.2,3.6-55.1V240c0-28.9,0-48-3.6-55.1c-3.2-6.3-8.3-11.4-14.6-14.6c-7.1-3.6-26.2-3.6-55.1-3.6H240z M366.7,533.3
		c-8.5,0-17.1-3.3-23.6-9.8l-100-100c-3.1-3.1-5.5-6.7-7.1-10.6c-1.7-4-2.6-8.4-2.6-13s0.9-9,2.6-13c1.6-3.8,4-7.4,7.1-10.6l100-100
		c13-13,34.1-13,47.1,0c13,13,13,34.1,0,47.1l-43.1,43.1h186.2c18.4,0,33.3,14.9,33.3,33.3s-14.9,33.3-33.3,33.3H347.1l43.1,43.1
		c13,13,13,34.1,0,47.1C383.7,530.1,375.2,533.3,366.7,533.3z"/>
</g>
</svg>
