<?xml version="1.0" encoding="utf-8"?>
<!-- Generator: Adobe Illustrator 24.1.1, SVG Export Plug-In . SVG Version: 6.00 Build 0)  -->
<svg version="1.1" id="Camada_1" xmlns="http://www.w3.org/2000/svg" xmlns:xlink="http://www.w3.org/1999/xlink" x="0px" y="0px"
	 viewBox="0 0 300 300" style="enable-background:new 0 0 300 300;" xml:space="preserve">
<style type="text/css">
	.st0{fill:#424242;}
</style>
<g>
	<polygon class="st0" points="221,277.1 219.2,277.1 219.7,278.4 	"/>
	<polygon class="st0" points="238.6,279.1 229.5,288.2 222.7,295 254.5,295 	"/>
	<polygon class="st0" points="277.1,277.1 256.1,277.1 274.1,295 284.1,295 295,284.1 277.1,266.1 	"/>
	<polygon class="st0" points="206.6,283.2 204.4,277.1 22.9,277.1 22.9,22.9 277.1,22.9 277.1,211.2 278.2,211.6 295,217.8 295,5 
		5,5 5,295 210.9,295 	"/>
	<polygon class="st0" points="283.2,234.5 277.1,240.6 277.1,246.5 295,264.5 295,222.7 	"/>
</g>
<g>
	<path class="st0" d="M193.7,195.7c7.6,6.6,15.2,9.2,24.9,9.2c0.1,0,0.3,0,0.4,0L193.7,195.7z"/>
	<path class="st0" d="M176.7,174.7l16.9,6.2l45.9,16.7c9.6-8.2,14.7-23.1,14.7-42.4c-0.7-50.4-27.4-92-59.3-92
		c-17.1,0-30.4,13.4-42.3,29.7c-16.3-21.5-30.4-29.7-46.7-29.7c-34.1,0-60.1,45.2-60.1,92.7c0,29.7,14.1,48.2,37.8,48.2
		c17.1,0,28.9-8.2,51.2-46.7c0,0,8.9-16.3,15.6-27.4c2.2,3.7,4.5,7.4,6.7,11.9l10.4,17.8C170.8,165.3,173.8,170.3,176.7,174.7z
		 M117.7,146.3c-17.8,28.2-23.7,34.1-33.4,34.1c-9.6,0.7-16.3-8.2-16.3-24.5c0-34.1,17.1-69.7,37.1-69.7c11.1,0,20,6.7,34.1,26.7
		C125.9,133.7,117.7,146.3,117.7,146.3z M193.4,81.7c22.3,0,40.1,33.4,40.1,74.9c0,15.6-5.2,24.5-15.6,24.5
		c-10.4,0-14.1-6.7-33.4-37.8l-12.6-20.8c-3-5.2-6.7-10.4-9.6-14.8C173.4,90.6,182.3,81.7,193.4,81.7z"/>
</g>
<polygon class="st0" points="273.4,224.7 188.9,193.9 219.7,278.4 238.6,259.5 279.1,300 295,284.1 254.5,243.6 "/>
</svg>
