<?xml version="1.0" encoding="utf-8"?>
<!-- Generator: Adobe Illustrator 24.1.1, SVG Export Plug-In . SVG Version: 6.00 Build 0)  -->
<svg version="1.1" id="Camada_1" xmlns="http://www.w3.org/2000/svg" xmlns:xlink="http://www.w3.org/1999/xlink" x="0px" y="0px"
	 viewBox="0 0 300 300" style="enable-background:new 0 0 300 300;" xml:space="preserve">
<path style="fill:#424242;" d="M5.38,5.38v289.24h289.24V5.38H5.38z M224.16,276.73H75.85V69.48h148.31V276.73z M276.73,276.73
	h-34.62V50.72H57.9v226.01H23.27V23.27h253.46V276.73z"/>
<path style="fill:#424242;" d="M183.1,129.93c13.65,0,24.72-11.07,24.72-24.72c0-5.59-1.92-10.68-5.05-14.82l-19.67,14.82
	l5.11-24.18c-1.65-0.35-3.35-0.54-5.11-0.54c-13.65,0-24.72,11.07-24.72,24.72C158.38,118.86,169.45,129.93,183.1,129.93z"/>
<rect x="82.59" y="80.49" style="fill:#424242;" width="60.27" height="11.38"/>
<rect x="82.59" y="99.52" style="fill:#424242;" width="60.27" height="11.38"/>
<rect x="82.59" y="118.55" style="fill:#424242;" width="60.27" height="11.38"/>
<rect x="82.59" y="137.58" style="fill:#424242;" width="133.61" height="11.38"/>
<rect x="82.59" y="156.61" style="fill:#424242;" width="133.61" height="11.38"/>
<rect x="82.59" y="175.64" style="fill:#424242;" width="133.61" height="11.38"/>
<rect x="82.59" y="194.67" style="fill:#424242;" width="133.61" height="11.38"/>
<rect x="82.59" y="213.7" style="fill:#424242;" width="133.61" height="11.38"/>
<rect x="150" y="232.74" style="fill:#424242;" width="66.19" height="11.38"/>
<rect x="150" y="251.77" style="fill:#424242;" width="66.19" height="11.38"/>
<rect x="82.59" y="232.74" style="fill:#424242;" width="60.27" height="30.41"/>
</svg>
