<?xml version="1.0" encoding="utf-8"?>
<!-- Generator: Adobe Illustrator 24.1.1, SVG Export Plug-In . SVG Version: 6.00 Build 0)  -->
<svg version="1.1" id="Camada_1" xmlns="http://www.w3.org/2000/svg" xmlns:xlink="http://www.w3.org/1999/xlink" x="0px" y="0px"
	 viewBox="0 0 300 300" style="enable-background:new 0 0 300 300;" xml:space="preserve">
<style type="text/css">
	.st0{fill:#424242;}
</style>
<g>
	<path class="st0" d="M122,151.5l35.2-58.1l0,0c0.3-0.3,0.5-0.7,0.4-1.1c-0.2-0.6-0.7-0.9-1.3-0.8h-24.8c-0.5,0-1,0-1.5,0.3
		c-0.4,0.3-0.6,0.8-0.8,1.2c-2.5,4.9-5.1,9.9-7.9,14.9c-2.7,5-5.3,9.9-7.9,14.9c-2.6,4.9-5.2,10-7.7,15.1h-0.2c-2.4-5-5-10-7.9-15
		c-2.8-4.9-5.6-9.9-8.4-15c-2.8-5-5.3-10.1-7.6-15.1c-0.3-0.4-0.7-0.8-1.1-1c-0.5-0.2-1.1-0.3-1.7-0.3H52.2c-0.4,0-0.9,0.1-1.1,0.5
		c-0.3,0.3-0.2,0.8,0.2,1.3l35.6,60.2l-36.5,60c-0.3,0.4-0.4,0.9-0.3,1.3c0.1,0.5,0.3,0.3,0.8,0.3h25.9c1.3,0,2.2-0.1,2.7-1.3
		c2.8-4.9,5.5-9.9,8.1-14.9c2.6-5,5.3-10,8-15c2.7-5,5.3-10.1,7.9-15.1h0.2c2.8,5.1,5.6,10.3,8.4,15.3c2.8,4.9,5.4,9.9,8,14.9
		c2.5,4.9,5,9.7,7.6,14.7c0.8,1.3,2.1,1.3,4,1.3h26.9l0,0c0.8-0.1,1.2,0.2,1.3-0.3c0.1-0.5,0.1-1-0.2-1.4L122,151.5z"/>
	<path class="st0" d="M249.5,201.3c-0.2-2.5-0.3-4.9-0.3-7V82.4c0-0.1,0-0.2,0-0.3c-0.1-0.6-0.6-0.9-1.1-0.9h-23.8
		c-0.8,0-1.1,0.4-1.1,1.3v37.3c-1.4-0.1-2.6-0.2-3.6-0.3c-11.1-0.8-22.3,1.6-32.2,6.7c-7.8,4.2-14.3,10.5-18.8,18.2
		c-4.3,7.6-6.5,16.1-6.4,24.8c-0.3,9.3,1.9,18.6,6.4,26.8c4.1,7,10.3,12.6,17.7,16c7.9,3.6,16.6,5.4,25.3,5.3
		c6.1,0,12.2-0.6,18.2-1.7c6.6-1.2,13-3.1,19.1-5.7v0c0.7-0.3,1.2-1.1,1.1-1.9C249.9,206.1,249.7,203.8,249.5,201.3z M223.1,193.9
		c-1.4,0.4-2.8,0.7-4.2,0.8c-1.6,0.1-3.3,0.2-4.9,0.2c-3.3,0-6.6-0.5-9.8-1.5c-3-0.9-5.7-2.6-7.9-4.7c-2.3-2.4-4.2-5.2-5.3-8.3
		c-1.4-3.9-2.1-8-2-12.1c-0.2-5.3,1.1-10.5,3.9-15c2.5-3.7,5.9-6.7,9.9-8.7c4.1-2,8.7-3.1,13.2-3c1.3,0,2.6,0.1,3.9,0.2v0
		c1.1,0.1,2.1,0.3,3.1,0.6V193.9z"/>
</g>
<path class="st0" d="M5,5v290h290V5H5z M277.1,277.1H22.9V22.9h254.1V277.1z"/>
</svg>
