<?xml version="1.0" encoding="utf-8"?>
<!-- Generator: Adobe Illustrator 24.1.1, SVG Export Plug-In . SVG Version: 6.00 Build 0)  -->
<svg version="1.1" id="Camada_1" xmlns="http://www.w3.org/2000/svg" xmlns:xlink="http://www.w3.org/1999/xlink" x="0px" y="0px"
	 viewBox="0 0 300 300" style="enable-background:new 0 0 300 300;" xml:space="preserve">
<style type="text/css">
	.st0{fill:#424242;}
</style>
<path class="st0" d="M5,5v290h290V5H5z M277.1,277.1H22.9V22.9h254.1V277.1z"/>
<g>
	<path class="st0" d="M119.7,251.1c-22.3,0-40.4-18.1-40.4-40.4c0-12.1,5.3-22.9,13.7-30.3c-8.4-7.4-13.7-18.3-13.7-30.3
		s5.3-22.9,13.7-30.3c-8.4-7.4-13.7-18.3-13.7-30.3c0-22.3,18.1-40.4,40.4-40.4h60.6c22.3,0,40.4,18.1,40.4,40.4
		c0,12.1-5.3,22.9-13.7,30.3c8.4,7.4,13.7,18.3,13.7,30.3c0,22.3-18.1,40.4-40.4,40.4c-7.4,0-14.3-2-20.2-5.4v25.6
		C160.1,232.9,142,251.1,119.7,251.1z M119.7,190.4c-11.1,0-20.2,9.1-20.2,20.2c0,11.1,9.1,20.2,20.2,20.2
		c11.1,0,20.2-9.1,20.2-20.2v-20.2H119.7z M160.1,150c0,11.1,9.1,20.2,20.2,20.2c11.1,0,20.2-9.1,20.2-20.2s-9.1-20.2-20.2-20.2
		C169.2,129.8,160.1,138.9,160.1,150z M119.7,170.2h20.2v-40.4h-20.2c-11.1,0-20.2,9.1-20.2,20.2S108.5,170.2,119.7,170.2z
		 M180.3,109.6c11.1,0,20.2-9.1,20.2-20.2s-9.1-20.2-20.2-20.2h-20.2v40.4H180.3z M119.7,109.6h20.2V69.2h-20.2
		c-11.1,0-20.2,9.1-20.2,20.2S108.5,109.6,119.7,109.6z"/>
</g>
</svg>
