<?xml version="1.0" encoding="utf-8"?>
<!-- Generator: Adobe Illustrator 24.1.1, SVG Export Plug-In . SVG Version: 6.00 Build 0)  -->
<svg version="1.1" id="Camada_1" xmlns="http://www.w3.org/2000/svg" xmlns:xlink="http://www.w3.org/1999/xlink" x="0px" y="0px"
	 viewBox="0 0 300 300" style="enable-background:new 0 0 300 300;" xml:space="preserve">
<g>
	<g>
		<path style="fill:#424242;" d="M5.21,5.21v289.58h289.58V5.21H5.21z M276.88,276.88H23.12V23.12h253.75v253.76H276.88z"/>
	</g>
</g>
<path style="fill:#424242;" d="M252.03,88.56V74.61L250,73.82c-0.69-0.28-17.09-6.64-38.95-6.64c-23.43,0-43.65,7.15-60.05,21.22
	c-16.44-14.07-36.62-21.22-60.07-21.22c-21.87,0-38.28,6.36-38.96,6.64l-1.99,0.79v12.92c-6.64,1.24-10.77,3.48-10.77,7.09v133.22
	h98.14c3.37,3.05,8.36,4.98,13.9,4.98c5.53,0,10.52-1.93,13.93-4.98h95.63V94.62C260.8,91.66,257.46,89.73,252.03,88.56z
	 M85.62,203.32c-11.1,0-20.93,1.68-29.33,5.05V79.01c4.89-1.62,18.23-5.48,34.63-5.48c21.59,0,40.13,6.54,55.29,19.26v77.2
	l3.71-4.12v51.47C141.76,213.97,113.71,203.32,85.62,203.32z M245.66,208.41c-9.01-3.61-19.32-5.43-30.78-5.43
	c-28.09,0-54.82,10.76-62.86,14.31v-51.41l3.75,4.12V92.8c15.13-12.72,33.7-19.26,55.27-19.26c16.37,0,29.74,3.86,34.62,5.48V208.41
	z"/>
<path style="fill:#424242;" d="M108.01,100.12c15.03,2.89,25.28,8.42,25.45,8.53l2.51-4.51c-0.76-0.41-11.83-6.43-27.99-9.35v5.33
	H108.01z"/>
<path style="fill:#424242;" d="M108.01,114.7c15.03,2.89,25.28,8.42,25.45,8.53l2.51-4.51c-0.76-0.41-11.83-6.43-27.99-9.35v5.33
	H108.01z"/>
<path style="fill:#424242;" d="M108.01,128.39c15.03,2.89,25.28,8.42,25.45,8.53l2.51-4.51c-0.76-0.41-11.83-6.4-27.99-9.32v5.3
	H108.01z"/>
<path style="fill:#424242;" d="M108.01,143.42c15.03,2.89,25.28,8.42,25.45,8.53l2.51-4.51c-0.76-0.41-11.83-6.43-27.99-9.36v5.33
	L108.01,143.42L108.01,143.42z"/>
<path style="fill:#424242;" d="M68.88,153.21l1.34,4.99c33.15-8.77,62.93,7.49,63.24,7.67l2.51-4.51
	C134.7,160.64,104.09,143.93,68.88,153.21L68.88,153.21z"/>
<path style="fill:#424242;" d="M68.88,167.52l1.34,4.99c33.15-8.8,62.93,7.46,63.24,7.63l2.51-4.51
	C134.7,174.91,104.09,158.2,68.88,167.52L68.88,167.52z"/>
<path style="fill:#424242;" d="M68.88,181.86l1.34,4.96c33.15-8.77,62.93,7.49,63.24,7.63l2.51-4.47
	C134.7,189.25,104.09,172.51,68.88,181.86L68.88,181.86z"/>
<path style="fill:#424242;" d="M170.05,109.03c0.31-0.18,30.09-16.41,63.24-7.63l1.3-4.99c-35.18-9.31-65.78,7.43-67.05,8.15
	L170.05,109.03z"/>
<path style="fill:#424242;" d="M167.54,119.1l2.51,4.51c0.31-0.18,30.09-16.44,63.24-7.63l1.3-4.99
	C199.41,101.67,168.81,118.41,167.54,119.1L167.54,119.1z"/>
<path style="fill:#424242;" d="M167.54,132.83l2.51,4.47c0.31-0.18,30.09-16.41,63.24-7.64l1.3-4.98
	C199.41,115.35,168.81,132.1,167.54,132.83L167.54,132.83z"/>
<path style="fill:#424242;" d="M167.54,147.82l2.51,4.51c0.31-0.18,30.09-16.44,63.24-7.64l1.3-4.98
	C199.41,130.38,168.81,147.1,167.54,147.82L167.54,147.82z"/>
<path style="fill:#424242;" d="M167.54,161.74l2.51,4.51c0.31-0.18,30.09-16.44,63.24-7.63l1.3-4.99
	C199.41,144.31,168.81,161.02,167.54,161.74L167.54,161.74z"/>
<path style="fill:#424242;" d="M167.54,176.01l2.51,4.51c0.31-0.18,30.09-16.44,63.24-7.63l1.3-4.99
	C199.41,158.58,168.81,175.29,167.54,176.01L167.54,176.01z"/>
<path style="fill:#424242;" d="M167.54,190.35l2.51,4.47c0.31-0.14,30.09-16.4,63.24-7.63l1.3-4.96
	C199.41,172.89,168.81,189.63,167.54,190.35L167.54,190.35z"/>
<path style="fill:#424242;" d="M102.44,142.52V93.93c0,0-8.29-0.93-16.79-0.72c-8.5,0.24-16.78,2.82-16.78,2.82v48.56
	c0,0,6.95-2.03,15.85-2.69C93.68,141.25,102.44,142.52,102.44,142.52L102.44,142.52z"/>
</svg>
