<?xml version="1.0" encoding="utf-8"?>
<!-- Generator: Adobe Illustrator 24.1.1, SVG Export Plug-In . SVG Version: 6.00 Build 0)  -->
<svg version="1.1" id="Camada_1" xmlns="http://www.w3.org/2000/svg" xmlns:xlink="http://www.w3.org/1999/xlink" x="0px" y="0px"
	 viewBox="0 0 300 300" style="enable-background:new 0 0 300 300;" xml:space="preserve">
<rect x="75.35" y="83.23" style="fill:#424242;" width="31.44" height="138.58"/>
<path style="fill:#424242;" d="M163.61,224.13c12.91,0,25.09-5.81,31.44-17.07h0.47l1.37,14.75h27.76
	c-0.35-6.73-0.83-18.72-0.83-30.05V75.87h-31.25v54.48h-0.38c-4.51-6.99-14.19-11.33-26.56-11.33c-24.05,0-45.27,19.54-44.99,53.49
	C120.65,203.76,139.72,224.13,163.61,224.13L163.61,224.13z M173.85,142.91c9.68,0,16.4,7.01,18.25,15.39
	c0.28,1.65,0.47,3.97,0.47,5.62v13.1c0,2.67-0.19,4.98-0.83,7.2c-1.84,8.85-9.04,15.01-18.08,15.01
	c-13.01,0-21.38-10.69-21.38-27.74C152.28,155.63,159.64,142.91,173.85,142.91L173.85,142.91z"/>
<path style="fill:#424242;" d="M5.14,5.14v289.71h289.71V5.14H5.14z M276.93,276.93H23.07V23.07h253.87v253.86H276.93z"/>
</svg>
