<?xml version="1.0" encoding="utf-8"?>
<!-- Generator: Adobe Illustrator 24.1.1, SVG Export Plug-In . SVG Version: 6.00 Build 0)  -->
<svg version="1.1" id="Camada_1" xmlns="http://www.w3.org/2000/svg" xmlns:xlink="http://www.w3.org/1999/xlink" x="0px" y="0px"
	 viewBox="0 0 800 800" style="enable-background:new 0 0 800 800;" xml:space="preserve">
<style type="text/css">
	.st0{fill-rule:evenodd;clip-rule:evenodd;fill:#F39232;}
</style>
<g id="System" transform="translate(-334.000000, -240.000000)">
	<g id="certificate_fill" transform="translate(334.000000, 240.000000)">
		<path id="形状" class="st0" d="M352.9,70c24.7-24.7,63.8-26,90-3.9l4.2,3.9l63.3,63.3H600c35.1,0,63.9,27.2,66.5,61.7l0.2,5
			v89.5l63.3,63.3c24.7,24.7,26,63.8,3.9,90L730,447l-63.3,63.3V600c0,35.1-27.2,63.9-61.7,66.5l-5,0.2h-89.5L447.1,730
			c-24.7,24.7-63.8,26-90,3.9l-4.2-3.9l-63.3-63.3H200c-35.1,0-63.9-27.2-66.5-61.7l-0.2-5v-89.5L70,447.1
			c-24.7-24.7-26-63.8-3.9-90l3.9-4.2l63.3-63.3V200c0-35.1,27.2-63.9,61.7-66.5l5-0.2h89.5L352.9,70z M502.6,299.4L361.2,440.9
			l-59-58.9c-13-13-34.1-13-47.1,0s-13,34.1,0,47.1l80.1,80.1c14.3,14.3,37.5,14.3,51.9,0l162.7-162.7c13-13,13-34.1,0-47.1
			S515.7,286.4,502.6,299.4z"/>
	</g>
</g>
</svg>
