<?xml version="1.0" encoding="utf-8"?>
<!-- Generator: Adobe Illustrator 24.1.1, SVG Export Plug-In . SVG Version: 6.00 Build 0)  -->
<svg version="1.1" id="Camada_1" xmlns="http://www.w3.org/2000/svg" xmlns:xlink="http://www.w3.org/1999/xlink" x="0px" y="0px"
	 viewBox="0 0 300 300" style="enable-background:new 0 0 300 300;" xml:space="preserve">
<style type="text/css">
	.st0{fill:#424242;}
</style>
<g>
	<path class="st0" d="M150,5C70,5,5,70,5,150c0,80,65,145,145,145c80,0,145-65,145-145C295,70,230,5,150,5z M243.3,243.3
		C219.4,267.2,186.4,282,150,282c-36.4,0-69.4-14.8-93.3-38.7C32.8,219.4,18,186.4,18,150c0-36.4,14.8-69.4,38.7-93.3
		C80.6,32.8,113.6,18,150,18c36.4,0,69.4,14.8,93.3,38.7C267.2,80.6,282,113.6,282,150C282,186.4,267.2,219.4,243.3,243.3z"/>
	<path class="st0" d="M45.8,103.5H45c-6.3,14.2-9.8,30-9.8,46.5c0,45.2,26.1,84.3,64.1,103L45.8,103.5L45.8,103.5z"/>
	<path class="st0" d="M215.2,108.3c-9.9-13.8-8.4-42.2,9.8-45.3c-20.1-17.4-46.3-27.9-75-27.9c-40.7,0-76.5,21.2-96.9,53.2h42v15.2
		H78.2l39.2,109.8l27.5-73.6l-13-36.3h-19.6V88.3h70.4v15.2h-18.3L204,214.2l20.1-53.6C227.6,146.2,225.6,122.8,215.2,108.3z"/>
	<path class="st0" d="M256.8,107.7c0,0.4-0.1,0.9-0.2,1.3c-2.8,18.6-20,59.5-20,59.5l-25,66.8l-5.6,14.9
		c35.1-19.6,58.9-57.2,58.9-100.3C264.9,135,262,120.8,256.8,107.7z"/>
	<path class="st0" d="M125,234.4l-9.4,25.2c10.9,3.4,22.4,5.3,34.4,5.3c13.1,0,25.7-2.2,37.5-6.3l-34.9-97.8L125,234.4z"/>
</g>
</svg>
