<?xml version="1.0" encoding="utf-8"?>
<!-- Generator: Adobe Illustrator 24.1.1, SVG Export Plug-In . SVG Version: 6.00 Build 0)  -->
<svg version="1.1" id="Camada_1" xmlns="http://www.w3.org/2000/svg" xmlns:xlink="http://www.w3.org/1999/xlink" x="0px" y="0px"
	 viewBox="0 0 300 300" style="enable-background:new 0 0 300 300;" xml:space="preserve">
<ellipse transform="matrix(0.3827 -0.9239 0.9239 0.3827 -42.7806 182.9344)" style="fill:#424242;" cx="115.5" cy="123.48" rx="16.21" ry="16.21"/>
<polygon style="fill:#424242;" points="238.13,206.36 225.23,189.79 179.75,201.4 193.33,150.99 194.22,150.1 194.28,150.03 
	186.9,140.55 146.3,192.11 109.91,163.36 63.74,210.2 63.74,90.66 238.13,90.66 238.13,106.05 258.34,85.78 258.34,71.2 43.63,71.2 
	43.63,238.65 258.34,238.65 258.34,162.39 238.13,182.6 "/>
<path style="fill:#424242;" d="M5.38,5.38v289.24h289.24V5.38H5.38z M23.27,276.73V23.27h253.46v57.47l-74.91,75.15l-8.7,32.32
	l34.9-8.91l48.71-48.7v146.13H23.27z"/>
</svg>
