<?xml version="1.0" encoding="utf-8"?>
<!-- Generator: Adobe Illustrator 24.1.1, SVG Export Plug-In . SVG Version: 6.00 Build 0)  -->
<svg version="1.1" id="Camada_1" xmlns="http://www.w3.org/2000/svg" xmlns:xlink="http://www.w3.org/1999/xlink" x="0px" y="0px"
	 viewBox="0 0 300 300" style="enable-background:new 0 0 300 300;" xml:space="preserve">
<path style="fill:#424242;" d="M197,201.26c-9.71,0-22.12-4.33-28.15-7.94l-5.81,23.38c7.94,4.33,20.2,7.34,33.96,7.34
	c30.05,0,45.57-14.39,45.57-34.02c-0.23-15.45-8.6-25.59-28.6-32.42c-12.85-4.55-16.89-7.13-16.89-12.06c0-5.36,4.48-8.6,12.42-8.6
	c9.03,0,18.01,3.46,22.78,6.04l5.79-22.58c-6.45-3.24-17.4-6.02-29.69-6.02c-26,0-42.76,14.85-42.76,34.39
	c-0.23,12.49,8.15,24.33,29.91,31.61c12.19,4.12,15.43,6.68,15.43,12.04C210.96,197.82,206.84,201.26,197,201.26L197,201.26z"/>
<path style="fill:#424242;" d="M89.85,170.1c3.01,0.43,6.91,0.58,11.16,0.58c19.34,0,35.94-4.7,47.03-15.2
	c8.68-8.17,13.38-20.23,13.38-34.39c0-14.18-6.17-26.25-15.5-33.53c-9.63-7.79-24.03-11.61-44.25-11.61
	c-19.98,0-34.17,1.32-44.23,3.01v142.95h32.42V170.1H89.85z M89.91,101.98c2.3-0.66,6.85-1.32,13.45-1.32
	c16.38,0,25.58,7.92,25.66,21.22c0,14.86-10.82,23.67-28.22,23.67c-4.7,0-8.09-0.21-10.89-0.81V101.98z"/>
<path style="fill:#424242;" d="M5.31,5.31v289.37h289.37V5.31H5.31z M276.79,276.79H23.21V23.21h253.57v253.58H276.79z"/>
</svg>
