<?xml version="1.0" encoding="utf-8"?>
<!-- Generator: Adobe Illustrator 24.1.1, SVG Export Plug-In . SVG Version: 6.00 Build 0)  -->
<svg version="1.1" id="Camada_1" xmlns="http://www.w3.org/2000/svg" xmlns:xlink="http://www.w3.org/1999/xlink" x="0px" y="0px"
	 viewBox="0 0 300 300" style="enable-background:new 0 0 300 300;" xml:space="preserve">
<g>
	<path style="fill:#424242;" d="M5,5v290h290V5H5z M277.06,277.06H22.94V22.94h254.12V277.06z"/>
	<g>
		<path style="fill:#424242;" d="M69.54,77.84c0-1.07,0-1.61,1.07-1.61c8.58-0.54,21.46-0.54,34.33-0.54
			c36.88,0,53.11,20.38,53.11,46.67c0,34.33-24.68,48.82-54.72,48.82H93.28v51.5c0.12,0.77-0.4,1.49-1.17,1.61
			c-0.14,0.02-0.29,0.02-0.44,0H71.15c-0.77,0.12-1.49-0.4-1.61-1.17c-0.02-0.14-0.02-0.29,0-0.44V77.84z M93.68,149.19h10.73
			c15.56,0,30.58-5.36,30.58-26.82c0-17.17-10.73-25.75-28.43-25.75c-4.3-0.15-8.6,0.03-12.87,0.54v52.03H93.68z M179.51,136.85
			c0-1.61,0-5.36-0.54-12.87c0-1.07,0-1.07,1.07-1.61c15.59-5.96,32.13-9.05,48.82-9.12c1.07,0,1.61,0,1.61,1.07v19.31
			c0,1.07-0.54,1.07-1.61,1.07c-8.49-0.47-17.01,0.44-25.21,2.68v84.22c0.12,0.77-0.4,1.49-1.17,1.61c-0.14,0.02-0.29,0.02-0.44,0
			h-20.92c-0.77,0.12-1.49-0.4-1.61-1.17c-0.02-0.14-0.02-0.29,0-0.44L179.51,136.85z"/>
	</g>
</g>
</svg>
