<?xml version="1.0" encoding="utf-8"?>
<!-- Generator: Adobe Illustrator 24.1.1, SVG Export Plug-In . SVG Version: 6.00 Build 0)  -->
<svg version="1.1" id="Camada_1" xmlns="http://www.w3.org/2000/svg" xmlns:xlink="http://www.w3.org/1999/xlink" x="0px" y="0px"
	 viewBox="0 0 300 300" style="enable-background:new 0 0 300 300;" xml:space="preserve">
<path style="fill:#FFFFFF;" d="M167.76,188.76v11.84c-0.02,5.65-4.59,10.22-10.24,10.24h-15c-5.61,0.02-10.19-4.48-10.27-10.09
	v-11.84H17.22c-4.41-0.02-8.7-1.46-12.22-4.11v68.06c0.03,7.59,6.17,13.73,13.76,13.76H281c7.63,0.1,13.9-6.01,14-13.64c0,0,0,0,0,0
	v-68.06c-3.51,2.58-7.75,3.97-12.1,3.97L167.76,188.76z"/>
<path style="fill:#FFFFFF;" d="M281.12,71.91h-74.9V50.99c-0.01-4.67-1.87-9.14-5.18-12.43l0,0c-3.29-3.31-7.76-5.17-12.43-5.18
	h-77.35c-9.81,0-17.76,7.95-17.76,17.76v20.92H18.88C11.3,72.02,5.11,78.09,5,85.67v82.53c0.02,6.68,5.43,12.09,12.1,12.1h115.14
	v-11.84c0.02-5.65,4.59-10.22,10.24-10.24h14.97c5.62-0.03,10.22,4.47,10.3,10.09v11.84h115.05c6.65,0.03,12.09-5.3,12.19-11.96
	V85.67C294.97,78.03,288.75,71.87,281.12,71.91L281.12,71.91z M188.23,71.91h-76.47V51.49h76.47V71.91z"/>
</svg>
