<?xml version="1.0" encoding="utf-8"?>
<!-- Generator: Adobe Illustrator 24.1.1, SVG Export Plug-In . SVG Version: 6.00 Build 0)  -->
<svg version="1.1" id="Camada_1" xmlns="http://www.w3.org/2000/svg" xmlns:xlink="http://www.w3.org/1999/xlink" x="0px" y="0px"
	 viewBox="0 0 300 300" style="enable-background:new 0 0 300 300;" xml:space="preserve">
<path style="fill:#FFFFFF;" d="M40.19,255.24C40.18,252.86,40.17,254.57,40.19,255.24L40.19,255.24z M40.19,255.24"/>
<path style="fill:#FFFFFF;" d="M295,190.5c0-4.31-2.54-7.98-6.15-9.76v-67.13c0.8-0.31,1.33-1.07,1.33-1.92
	c0-0.89-0.58-1.64-1.38-1.92l-138.5-48.85c-1.73-0.67-3.7-0.67-5.48,0L6.38,109.78C5.54,110.05,5,110.8,5,111.69
	c0,0.84,0.49,1.61,1.29,1.92l138.31,53.85c1.92,0.75,4.06,0.75,5.98,0l128.73-50.15v63.43c-3.61,1.78-6.15,5.44-6.15,9.72
	c0,4.5,2.72,8.38,6.64,10.06c-3.93,7.71-6.64,23.59-6.64,28.13c0,6.03,4.91,10.92,10.92,10.92c6.01,0,10.92-4.9,10.92-10.92
	c0-4.54-2.72-20.41-6.64-28.13C292.28,198.89,295,194.96,295,190.5L295,190.5z M295,190.5"/>
<path style="fill:#FFFFFF;" d="M49.62,140.76c0,15.47,0,33.7,0,36.6c0,28.8,43.42,52.29,97.98,53.76
	c54.56-1.47,97.93-24.92,97.93-53.76c0-2.9,0-21.12,0.05-36.6l-94.99,36.95c-1.92,0.76-4.06,0.76-5.98,0L49.62,140.76z
	 M49.62,140.76"/>
</svg>
