<?xml version="1.0" encoding="utf-8"?>
<!-- Generator: Adobe Illustrator 24.1.1, SVG Export Plug-In . SVG Version: 6.00 Build 0)  -->
<svg version="1.1" id="Camada_1" xmlns="http://www.w3.org/2000/svg" xmlns:xlink="http://www.w3.org/1999/xlink" x="0px" y="0px"
	 viewBox="0 0 300 300" style="enable-background:new 0 0 300 300;" xml:space="preserve">
<path style="fill:#FFFFFF;" d="M150.46,146.97c32.24,0,58.38-31.75,58.38-70.91s-8.59-70.91-58.38-70.91
	c-49.8,0-58.38,31.75-58.38,70.91S118.22,146.97,150.46,146.97L150.46,146.97z"/>
<path style="fill:#606060;" d="M40.19,255.24C40.18,252.86,40.17,254.57,40.19,255.24L40.19,255.24z"/>
<path style="fill:#FFFFFF;" d="M260.61,252.38c-1.08-68.23-9.99-87.67-78.18-99.98c0,0-9.6,12.23-31.97,12.23
	s-31.97-12.23-31.97-12.23c-67.44,12.17-76.89,31.33-78.14,97.76c-0.1,5.43-0.15,5.71-0.17,5.08c0,1.18,0.01,3.37,0.01,7.17
	c0,0,16.23,32.73,110.27,32.73c94.03,0,110.26-32.73,110.26-32.73c0-2.44,0-4.14,0-5.3C260.71,257.5,260.68,256.74,260.61,252.38
	L260.61,252.38z"/>
</svg>
